<?xml version="1.0" encoding="UTF-8"?>
<svg width="17px" height="16px" viewBox="0 0 17 16" version="1.1" xmlns="http://www.w3.org/2000/svg" xmlns:xlink="http://www.w3.org/1999/xlink">
    <title>ae</title>
    <g id="页面-1" stroke="none" stroke-width="1" fill="none" fill-rule="evenodd">
        <g id="个人主页-106" transform="translate(-158.000000, -722.000000)" fill-rule="nonzero">
            <g id="ae" transform="translate(158.743751, 722.459901)">
                <path d="M2.05516635,0.377479534 L13.3795524,0.377479534 C14.4980102,0.377479534 15.0572392,0.936708473 15.0572392,2.05516635 L15.0572392,13.3795524 C15.0572392,14.4980102 14.4980102,15.0572392 13.3795524,15.0572392 L2.05516635,15.0572392 C0.936708473,15.0572392 0.377479534,14.4980102 0.377479534,13.3795524 L0.377479534,2.05516635 C0.377479534,0.936708473 0.936708473,0.377479534 2.05516635,0.377479534 Z" id="路径" fill-opacity="0.4" fill="#1F0040"></path>
                <path d="M3.68701404,10.8698505 L4.17134738,9.46009451 L6.56274326,9.46009451 L7.05140101,10.8698505 L8.05898734,10.8698505 L5.76705277,4.56486822 L4.96703787,4.56486822 L2.6751033,10.8698505 L3.68701404,10.8698505 Z M6.29030576,8.61251116 L4.44810929,8.61251116 L5.36055871,5.85786527 L5.37785633,5.85786527 L6.29030576,8.61251116 Z M12.7596154,10.8698505 L12.7596154,9.96604988 L9.68928797,9.96604988 L9.68928797,8.11520461 L12.3098773,8.11520461 L12.3098773,7.26762125 L9.68928797,7.26762125 L9.68928797,5.46866884 L12.7596154,5.46866884 L12.7596154,4.56486822 L8.7335945,4.56486822 L8.7335945,10.8698505 L12.7596154,10.8698505 Z" id="AE" fill="#D291FF"></path>
                <path d="M13.3795524,15.4347187 L2.05516635,15.4347187 C0.92065632,15.4334474 0.00127129039,14.5140624 0,13.3795524 L0,2.05516635 C0.00127129039,0.92065632 0.92065632,0.00127129039 2.05516635,0 L13.3795524,0 C14.5140624,0.00127129039 15.4334474,0.92065632 15.4347187,2.05516635 L15.4347187,13.3795524 C15.4334474,14.5140624 14.5140624,15.4334474 13.3795524,15.4347187 L13.3795524,15.4347187 Z M2.05516635,0.754959068 C1.33741706,0.755768061 0.755768061,1.33741706 0.754959068,2.05516635 L0.754959068,13.3795524 C0.755768061,14.0973017 1.33741706,14.6789507 2.05516635,14.6797596 L13.3795524,14.6797596 C14.0973017,14.6789507 14.6789507,14.0973017 14.6797596,13.3795524 L14.6797596,2.05516635 C14.6789507,1.33741706 14.0973017,0.755768061 13.3795524,0.754959068 L2.05516635,0.754959068 Z" id="形状" fill-opacity="0.4" fill="#D291FF"></path>
            </g>
        </g>
    </g>
</svg>