<?xml version="1.0" encoding="UTF-8"?>
<svg width="21px" height="17px" viewBox="0 0 21 17" version="1.1" xmlns="http://www.w3.org/2000/svg" xmlns:xlink="http://www.w3.org/1999/xlink">
    <title>Blender</title>
    <g id="页面-1" stroke="none" stroke-width="1" fill="none" fill-rule="evenodd">
        <g id="个人主页-106" transform="translate(-82.000000, -722.000000)" fill-rule="nonzero">
            <g id="Blender" transform="translate(82.973857, 722.459901)">
                <path d="M3.60490137,3.51090954 C3.07579015,3.51090954 2.64686076,3.93983893 2.64686076,4.46895014 C2.64686076,4.99792962 3.07592189,5.42503156 3.60490137,5.42503156 L7.59379846,5.42503156 L0.4212286,11.0890303 C-0.0587712949,11.4691119 -0.141056983,12.1685403 0.239024559,12.6485402 C0.6191061,13.1285401 1.3204937,13.2108258 1.8004936,12.8307442 L5.78351315,9.68625513 L5.78351315,9.69017349 C5.78351315,13.1030707 8.78694106,15.8694374 12.4917566,15.8694374 C16.1965721,15.8694374 19.2,13.1030707 19.2,9.69017349 C19.2,7.52527601 17.9911839,5.62094989 16.1613068,4.51792973 L10.5619611,0.182257214 C10.1799204,-0.111620265 9.63330823,-0.043048868 9.33943073,0.337032674 C9.19766141,0.519249668 9.13429591,0.750423649 9.16333915,0.979460898 C9.1923824,1.20849815 9.31144294,1.41653945 9.49420621,1.55760384 L12.0176342,3.51090954 L3.60490137,3.51090954 Z" id="路径" fill-opacity="0.4" fill="#E87D0D"></path>
                <path d="M12.5779606,5.42561932 C10.2700428,5.42561932 8.39706358,7.100721 8.39706358,9.16765933 C8.39706358,11.2345977 10.2700428,12.9096993 12.5779606,12.9096993 C14.8878377,12.9096993 16.7608169,11.2345976 16.7608169,9.16765933 C16.7608169,7.10072102 14.8878377,5.42561932 12.5779606,5.42561932 Z" id="路径" fill-opacity="0.4" fill="#FFFFFF"></path>
                <path d="M12.5787443,6.81801085 C11.1348263,6.81801085 9.96519386,7.87009224 9.96519386,9.16707157 C9.96519386,10.4660101 11.1348263,11.5180915 12.5787443,11.5180915 C14.0226624,11.5180915 15.1922947,10.4660101 15.1922947,9.16707157 C15.1922947,7.87009226 14.0226624,6.81801085 12.5787443,6.81801085 L12.5787443,6.81801085 Z" id="路径" fill="#006FDB"></path>
            </g>
        </g>
    </g>
</svg>