<?xml version="1.0" encoding="UTF-8"?>
<svg width="12px" height="18px" viewBox="0 0 12 18" version="1.1" xmlns="http://www.w3.org/2000/svg" xmlns:xlink="http://www.w3.org/1999/xlink">
    <title>Figma</title>
    <g id="页面-1" stroke="none" stroke-width="1" fill="none" fill-rule="evenodd">
        <g id="Figma" transform="translate(0.663996, 0.871402)" fill-rule="nonzero">
            <path d="M5.58766856,8.39461943 C5.58766856,6.84686147 6.84686147,5.58766856 8.39461943,5.58766856 C9.94237739,5.58766856 11.2015703,6.84686147 11.2015703,8.39461943 C11.2015703,9.94237739 9.94237739,11.2015703 8.39461943,11.2015703 C6.84686147,11.2015703 5.58766856,9.94237739 5.58766856,8.39461943 Z" id="路径" fill-opacity="0.5" fill="#1ABCFE"></path>
            <path d="M0,13.982288 C0,12.43453 1.25919291,11.1753371 2.80695087,11.1753371 L5.58766856,11.1753371 L5.58766856,13.982288 C5.58766856,15.5300459 4.32847564,16.7892389 2.78071769,16.7892389 C1.23295973,16.7892389 0,15.5300459 0,13.982288 Z" id="路径" fill-opacity="0.4" fill="#0ACF83"></path>
            <path d="M5.58766856,0 L5.58766856,5.58766856 L8.39461943,5.58766856 C9.94237739,5.58766856 11.2015703,4.32847564 11.2015703,2.78071769 C11.2015703,1.23295973 9.94237739,0 8.39461943,0 L5.58766856,0 Z" id="路径" fill-opacity="0.4" fill="#FF7262"></path>
            <path d="M0,2.80695087 C0,4.35470883 1.25919291,5.61390174 2.80695087,5.61390174 L5.58766856,5.61390174 L5.58766856,0 L2.78071769,0 C1.23295973,0 0,1.25919291 0,2.80695087 Z" id="路径" fill-opacity="0.4" fill="#F24E1E"></path>
            <path d="M0,8.39461943 C0,9.94237739 1.25919291,11.2015703 2.80695087,11.2015703 L5.58766856,11.2015703 L5.58766856,5.58766856 L2.78071769,5.58766856 C1.23295973,5.58766856 0,6.84686147 0,8.39461943 Z" id="路径" fill-opacity="0.5" fill="#A259FF"></path>
        </g>
    </g>
</svg>