<?xml version="1.0" encoding="UTF-8"?>
<svg width="16px" height="16px" viewBox="0 0 16 16" version="1.1" xmlns="http://www.w3.org/2000/svg" xmlns:xlink="http://www.w3.org/1999/xlink">
    <title>编组 24</title>
    <g id="页面-1" stroke="none" stroke-width="1" fill="none" fill-rule="evenodd">
        <g id="编组-24" transform="translate(0.215955, 0.459901)">
            <circle id="椭圆形" fill-opacity="0.2" fill="#F9D6FF" cx="7.71735936" cy="7.71735936" r="7.71735936"></circle>
            <path d="M4.2426046,10.8302926 L4.24183226,6.5372443 C4.24183226,4.62956609 5.79790297,3.0833427 7.71735936,3.0833427 C9.63681574,3.0833427 11.1928865,4.62975918 11.1928865,6.5372443 C11.1928865,8.44472942 9.66944708,9.9911459 7.74979761,9.99114589 C7.13984261,9.99114589 6.64535233,9.49974498 6.64535233,8.89365167 C6.64535233,8.28736527 7.13984261,7.79615744 7.74979761,7.79615744 C8.44953707,7.79615744 8.98418899,7.23234972 8.98418899,6.5372443 C8.98418899,5.8419458 8.41690573,5.27833115 7.71735936,5.27833115 C7.01781299,5.27833115 6.45072281,5.84194579 6.45072281,6.53705121 L6.45130207,11.2539207 C6.45149515,12.317432 5.28449039,12.6080247 4.64692425,12.1255057 C4.84050612,11.9936823 4.95637715,11.7746622 4.95643925,11.5404586 C4.95643925,11.1484964 4.63688384,10.8306788 4.2426046,10.8302926 L4.2426046,10.8302926 Z M7.74979761,9.60362462 C8.14446302,9.60362462 8.4644046,9.28580697 8.4644046,8.89365167 C8.4644046,8.50130328 8.14446303,8.18348563 7.74999069,8.18348563 C7.3551322,8.18348563 7.03519062,8.50130328 7.03519062,8.89365167 C7.03519062,9.2856139 7.3551322,9.60362462 7.74979761,9.60362462 L7.74979761,9.60362462 Z" id="形状" fill="#D35CE7" fill-rule="nonzero"></path>
        </g>
    </g>
</svg>