<?xml version="1.0" encoding="UTF-8"?>
<svg width="17px" height="16px" viewBox="0 0 17 16" version="1.1" xmlns="http://www.w3.org/2000/svg" xmlns:xlink="http://www.w3.org/1999/xlink">
    <title>ps</title>
    <g id="页面-1" stroke="none" stroke-width="1" fill="none" fill-rule="evenodd">
        <g id="个人主页-106" transform="translate(-158.000000, -722.000000)" fill-rule="nonzero">
            <g id="ps" transform="translate(158.743751, 722.459901)">
                <path d="M2.05516635,0.377479534 L13.3795524,0.377479534 C14.4980102,0.377479534 15.0572392,0.936708473 15.0572392,2.05516635 L15.0572392,13.3795524 C15.0572392,14.4980102 14.4980102,15.0572392 13.3795524,15.0572392 L2.05516635,15.0572392 C0.936708473,15.0572392 0.377479534,14.4980102 0.377479534,13.3795524 L0.377479534,2.05516635 C0.377479534,0.936708473 0.936708473,0.377479534 2.05516635,0.377479534 Z" id="路径" fill-opacity="0.4" fill="#011E36"></path>
                <path d="M4.17081715,11.0801791 L4.17081715,8.4336446 L5.73362132,8.4336446 C6.43130176,8.4212414 6.96153889,8.19798366 7.32433271,7.76387139 C7.67782413,7.35146473 7.85456984,6.89409645 7.85456984,6.39176653 C7.85456984,6.0196703 7.7848018,5.6971869 7.64526571,5.42431633 C7.51193123,5.14214336 7.33828632,4.92508722 7.12433099,4.77314793 C6.87006523,4.5715958 6.61890028,4.43826132 6.37083612,4.37314448 C6.12277197,4.32353165 5.86540541,4.29872523 5.59873644,4.29872523 L3.14290131,4.29872523 L3.14290131,11.0801791 L4.17081715,11.0801791 Z M5.6917605,7.4615432 L4.17081715,7.4615432 L4.17081715,5.27082664 L5.65455088,5.27082664 C5.93362305,5.26462503 6.1785864,5.32819147 6.38944093,5.46152596 C6.52897702,5.54214681 6.63750509,5.65222527 6.71502514,5.79176136 C6.78944438,5.94680146 6.826654,6.13750078 6.826654,6.36385932 C6.826654,6.63672989 6.73518035,6.88479404 6.55223303,7.10805178 C6.35998331,7.33751112 6.07315914,7.4553416 5.6917605,7.4615432 Z M10.2918002,11.1359935 C10.8716501,11.1297919 11.3476232,10.9964574 11.7197194,10.73599 C12.0949165,10.4817243 12.2856158,10.1204809 12.2918174,9.65225976 C12.2918174,9.25225631 12.1879405,8.92202091 11.9801868,8.66155355 C11.7569291,8.39488458 11.3941352,8.24294529 10.8918053,8.20573566 L10.0917984,8.14527002 C9.85613749,8.12046361 9.69179499,8.06309877 9.59877093,7.97317552 C9.49644447,7.89255467 9.44838204,7.79798021 9.45458364,7.68945214 C9.45458364,7.51890804 9.51815008,7.37937195 9.64528296,7.27084388 C9.76621423,7.16231581 9.97861916,7.10805178 10.2824978,7.10805178 C10.5491667,7.10805178 10.7848277,7.1468118 10.9894806,7.22433185 C11.1556836,7.29378982 11.3149408,7.37813163 11.4672522,7.47735729 L11.5801834,7.55456726 L12.1801885,6.85223562 C11.9445276,6.64758269 11.6778586,6.48479059 11.3801816,6.36385932 C11.2251415,6.30804488 11.0592486,6.26463366 10.8825029,6.23362564 C10.7057572,6.20571842 10.5057555,6.19176481 10.2824978,6.19176481 C9.76776463,6.19176481 9.34295477,6.31579689 9.00806816,6.56386104 C8.66387915,6.8119252 8.48868384,7.18402143 8.48248223,7.68014974 C8.48868384,8.09255639 8.62201832,8.41348939 8.88248568,8.64294873 C9.13675144,8.87860968 9.46698685,9.01504497 9.8731919,9.05225459 L10.7290132,9.12667384 C10.9088597,9.13287544 11.053047,9.17163546 11.1615751,9.24295391 C11.2670024,9.31117155 11.319716,9.43210283 11.319716,9.60574773 C11.319716,9.80109825 11.2313431,9.95303755 11.0545974,10.0615656 C10.8778517,10.1700937 10.6499428,10.2243577 10.3708706,10.2243577 C9.74760942,10.2243577 9.23907791,10.0181544 8.84527606,9.60574773 L8.16620044,10.2708697 C8.79566323,10.8476189 9.50419647,11.1359935 10.2918002,11.1359935 Z" id="Ps" fill="#31A8FF"></path>
                <path d="M13.3795524,15.4347187 L2.05516635,15.4347187 C0.92065632,15.4334474 0.00127129039,14.5140624 0,13.3795524 L0,2.05516635 C0.00127129039,0.92065632 0.92065632,0.00127129039 2.05516635,0 L13.3795524,0 C14.5140624,0.00127129039 15.4334474,0.92065632 15.4347187,2.05516635 L15.4347187,13.3795524 C15.4334474,14.5140624 14.5140624,15.4334474 13.3795524,15.4347187 L13.3795524,15.4347187 Z M2.05516635,0.754959068 C1.33741706,0.755768061 0.755768061,1.33741706 0.754959068,2.05516635 L0.754959068,13.3795524 C0.755768061,14.0973017 1.33741706,14.6789507 2.05516635,14.6797596 L13.3795524,14.6797596 C14.0973017,14.6789507 14.6789507,14.0973017 14.6797596,13.3795524 L14.6797596,2.05516635 C14.6789507,1.33741706 14.0973017,0.755768061 13.3795524,0.754959068 L2.05516635,0.754959068 Z" id="形状" fill-opacity="0.4" fill="#31A8FF"></path>
            </g>
        </g>
    </g>
</svg>