<?xml version="1.0" encoding="UTF-8"?>
<svg width="12px" height="11px" viewBox="0 0 12 11" version="1.1" xmlns="http://www.w3.org/2000/svg" xmlns:xlink="http://www.w3.org/1999/xlink">
    <title>编组 25</title>
    <g id="页面-1" stroke="none" stroke-width="1" fill="none" fill-rule="evenodd">
        <g id="编组-25" transform="translate(0.418771, 0.201890)">
            <g id="编组-24">
                <path d="M3.10713412,0 L2.05396588,4.1419596 C1.48987427,6.27619143 1.86350276,7.53596252 3.17485134,7.92127289 C3.06590483,7.95956658 1.16868887,8.20693135 0.377667339,7.0634456 C0.0187108568,6.51859702 -0.0726199669,5.76492954 0.0540262783,4.92708214 C0.138457109,4.36851721 0.531383634,2.72615649 1.23280585,0 L3.10713412,0 Z M7.53435043,0.00372862876 L6.39285925,4.55359837 C5.92496473,6.28249624 5.06022246,7.36155072 3.79863243,7.79076181 C3.4453002,7.7131931 2.29781654,7.51565308 2.16002008,6.23860159 C2.34612998,6.31038381 3.46328044,6.65889835 4.23733682,5.37242515 C4.40686323,5.09852478 4.56485845,4.65831983 4.71132249,4.05181031 L5.7274144,0.00372862876 L7.53435043,0.00372862876 Z" id="形状结合" fill="#FFFFFF"></path>
                <path d="M3.17485134,7.92127289 C3.67361852,8.09034669 4.26940847,8.15911599 4.96222118,8.12758079 C6.00144025,8.08027799 6.94178228,7.87540977 7.84245416,7.37429197 C8.74312604,6.87317416 9.65953213,5.97444894 10.0969732,4.38770439 C10.1300933,4.27084465 10.2039859,3.96643048 10.3186509,3.47446191 L11.143935,0.00372862876 L9.38730738,0.00372862876 L8.36178725,4.28447071 C8.17972316,4.90984072 7.92340032,5.46147617 7.59281872,5.93937705 C7.09694634,6.65622838 6.35836797,7.47411651 5.13373267,7.74638981 C5.01451127,7.76966082 4.36640855,7.89276203 3.79863243,7.79076181 C3.6905179,7.82371101 3.48259087,7.8672147 3.17485134,7.92127289 Z" id="路径-4" fill="#FF2424"></path>
            </g>
            <path d="M1.89457141,10.0710304 C2.07842961,10.0710304 2.22107821,10.0123859 2.30666737,9.83645266 C2.36689678,9.71282387 2.41127635,9.43703658 2.41127635,9.30865284 C2.41127635,9.0978499 2.29557248,8.99324093 2.08318456,8.99324093 L1.68059851,8.99324093 C1.67267359,8.99324093 1.66633365,8.99958087 1.66474867,9.00909077 L1.47930548,10.0551805 C1.4777205,10.0646904 1.48406044,10.0710304 1.49198536,10.0710304 L1.89457141,10.0710304 Z M1.88030655,9.83169771 L1.79630238,9.83169771 C1.79154742,9.83169771 1.78837745,9.82852774 1.78996244,9.8221878 L1.89298643,9.24208349 C1.89457141,9.23574355 1.8961564,9.23257358 1.90249633,9.23257358 L1.98333054,9.23257358 C2.09269447,9.23257358 2.13865902,9.27219819 2.13865902,9.37046723 C2.13865902,9.44179153 2.10061939,9.6589344 2.06733472,9.72708873 C2.02771011,9.80633796 1.97540562,9.83169771 1.88030655,9.83169771 Z M3.45451311,10.0710304 C3.46402302,10.0710304 3.47036296,10.0646904 3.47194794,10.0551805 L3.5068176,9.85864244 C3.50840259,9.84913254 3.50364763,9.8427926 3.49413773,9.8427926 L3.07570183,9.8427926 C3.06936189,9.8427926 3.06777691,9.83962263 3.06777691,9.83328269 L3.10106158,9.6494245 C3.10264657,9.64308456 3.10581653,9.63991459 3.11057149,9.63991459 L3.45451311,9.63991459 C3.46402302,9.63991459 3.47194794,9.63357465 3.47353293,9.62406474 L3.5068176,9.43069664 C3.50840259,9.42118673 3.50364763,9.4148468 3.49413773,9.4148468 L3.15178108,9.4148468 C3.14544115,9.4148468 3.14227118,9.41167683 3.14385616,9.40533689 L3.17555585,9.2309886 C3.17555585,9.22464866 3.1803108,9.22147869 3.18506576,9.22147869 L3.60508664,9.22147869 C3.61301156,9.22147869 3.62093648,9.21513875 3.62252147,9.20562885 L3.65739113,9.00909077 C3.65897611,8.99958087 3.65422116,8.99324093 3.64471125,8.99324093 L2.96316793,8.99324093 C2.95524301,8.99324093 2.94890307,8.99958087 2.94731809,9.00909077 L2.76187491,10.0551805 C2.76028992,10.0646904 2.76662986,10.0710304 2.77455478,10.0710304 L3.45451311,10.0710304 Z M4.30121181,10.0900502 C4.588094,10.0900502 4.78304709,9.93630668 4.78304709,9.6795392 C4.78304709,9.52579571 4.67843811,9.43703658 4.48665499,9.40850686 L4.43435051,9.40058194 C4.34400639,9.38790206 4.31706166,9.35937234 4.31706166,9.31816274 C4.31706166,9.25634835 4.37570608,9.20721383 4.45654029,9.20721383 C4.53895948,9.20721383 4.6086988,9.23415857 4.67209817,9.28329309 C4.67843811,9.28804804 4.68794802,9.28646305 4.69587294,9.27853813 L4.83535157,9.1184547 C4.84486148,9.1089448 4.84486148,9.10101987 4.83693656,9.09467994 C4.75451737,9.02335563 4.62454864,8.97422112 4.48031506,8.97422112 C4.21403767,8.97422112 4.03651941,9.13271956 4.03651941,9.36729726 C4.03651941,9.52104075 4.14112838,9.61455484 4.3329115,9.64149957 L4.38680097,9.6494245 C4.4755601,9.66368936 4.50091985,9.69063409 4.50091985,9.73184369 C4.50091985,9.801583 4.43593549,9.85547247 4.33132652,9.85547247 C4.22830253,9.85547247 4.13795841,9.80792294 4.08723891,9.75244848 C4.08248396,9.74610855 4.07138907,9.74610855 4.06346414,9.75403347 L3.90179573,9.90936195 C3.89228582,9.91728687 3.89387081,9.92996674 3.89862576,9.93630668 C3.96519511,10.0171409 4.13320346,10.0900502 4.30121181,10.0900502 Z M5.4236978,10.0710304 C5.43320771,10.0710304 5.43796266,10.0646904 5.43954765,10.0551805 L5.62499083,9.00909077 C5.62657581,8.99958087 5.62182086,8.99324093 5.61231095,8.99324093 L5.37456329,8.99324093 C5.36505338,8.99324093 5.35871344,8.99958087 5.35712846,9.00909077 L5.17168528,10.0551805 C5.17010029,10.0646904 5.17644023,10.0710304 5.18595014,10.0710304 L5.4236978,10.0710304 Z M6.32587096,10.0900502 C6.52399401,10.0900502 6.66030268,10.0171409 6.74906181,9.84120761 C6.78234648,9.77622325 6.80453626,9.69380406 6.82672605,9.56542032 L6.83940592,9.4861711 C6.84099091,9.47666119 6.83782094,9.47032125 6.82831103,9.47032125 L6.45583968,9.47032125 C6.44791476,9.47032125 6.43998984,9.47666119 6.43840485,9.4861711 L6.40829015,9.65734942 C6.40670516,9.66685932 6.41146012,9.67319926 6.41938504,9.67319926 L6.53033395,9.67319926 C6.53667389,9.67319926 6.53984386,9.67636923 6.53984386,9.68270917 C6.53350392,9.71599384 6.525579,9.73818362 6.51765408,9.75878842 C6.49070934,9.81584786 6.43840485,9.85071752 6.36074061,9.85071752 C6.28149139,9.85071752 6.23711183,9.801583 6.23711183,9.72550375 C6.23711183,9.64466954 6.28624635,9.37839215 6.31636105,9.31657776 C6.34647575,9.25317838 6.39719526,9.21355377 6.47010454,9.21355377 C6.54142884,9.21355377 6.5762985,9.24525346 6.60007327,9.30389788 C6.60482822,9.31182281 6.61275314,9.31499277 6.62384803,9.31182281 L6.831481,9.22940361 C6.84099091,9.22464866 6.84574586,9.21513875 6.84257589,9.20404386 C6.80453626,9.06932018 6.68566243,8.97422112 6.50338922,8.97422112 C6.30209619,8.97422112 6.1578626,9.05030037 6.07227344,9.22623365 C6.01362902,9.34510748 5.96607949,9.64625453 5.96607949,9.7508635 C5.96607949,9.97434631 6.11031307,10.0900502 6.32587096,10.0900502 Z M7.41824224,10.0710304 C7.42616717,10.0710304 7.4325071,10.0646904 7.43409209,10.0551805 L7.545041,9.43069664 L7.55296592,9.43069664 L7.75584393,10.0551805 C7.7590139,10.0662754 7.76693882,10.0710304 7.77803372,10.0710304 L8.00468649,10.0710304 C8.0141964,10.0710304 8.02053634,10.0646904 8.02212132,10.0551805 L8.2075645,9.00909077 C8.20914949,8.99958087 8.20280955,8.99324093 8.19329964,8.99324093 L7.98091173,8.99324093 C7.97140182,8.99324093 7.96506188,8.99958087 7.9634769,9.00909077 L7.85252799,9.63357465 L7.84618805,9.63357465 L7.64331004,9.00909077 C7.63855508,8.99799588 7.63063016,8.99324093 7.61953527,8.99324093 L7.39446748,8.99324093 C7.38495757,8.99324093 7.37861763,8.99958087 7.37703265,9.00909077 L7.19158947,10.0551805 C7.19000448,10.0646904 7.19634442,10.0710304 7.20585433,10.0710304 L7.41824224,10.0710304 Z" id="DESIGN" fill="#FFFFFF" fill-rule="nonzero"></path>
        </g>
    </g>
</svg>