<?xml version="1.0" encoding="UTF-8"?>
<svg width="88px" height="26px" viewBox="0 0 88 26" version="1.1" xmlns="http://www.w3.org/2000/svg" xmlns:xlink="http://www.w3.org/1999/xlink">
    <title>编组 24</title>
    <g id="碰巧首页改版" stroke="none" stroke-width="1" fill="none" fill-rule="evenodd">
        <g id="编组-24" transform="translate(0.600000, 0.400000)" fill="#FFFFFF">
            <rect id="矩形" fill-opacity="0" opacity="0" x="0" y="0" width="86.8" height="25.2"></rect>
            <path d="M5.40686917,21.3645638 C8.54286917,21.3645638 10.4832692,19.5718121 11.1692692,14.641745 L12.6000692,4.38322145 C12.6196692,4.23382547 12.5412692,4.13422816 12.4432692,4.13422816 L9.48366917,4.13422816 C9.36606917,4.13422816 9.28766917,4.23382547 9.26806917,4.38322145 L7.81766917,14.8160403 C7.52366917,16.8577853 6.79846917,17.6047651 5.68126917,17.6047651 C4.56406917,17.6047651 3.99566917,16.5838926 4.25046917,14.8160403 L5.70086917,4.38322145 C5.72046917,4.23382547 5.64206917,4.13422816 5.52446917,4.13422816 L2.58446917,4.13422816 C2.46686917,4.13422816 2.38846917,4.23382547 2.36886917,4.38322145 L0.957669169,14.492349 C0.330469169,18.9991275 2.13366917,21.3645638 5.40686917,21.3645638 Z M15.4616692,21.0657718 C15.5792692,21.0657718 15.6380692,20.9661745 15.6576692,20.8167786 L17.9508692,4.38322145 C17.9704692,4.23382547 17.9116692,4.13422816 17.7940692,4.13422816 L14.8540692,4.13422816 C14.7364692,4.13422816 14.6580692,4.23382547 14.6384692,4.38322145 L12.3452692,20.8167786 C12.3256692,20.9661745 12.4040692,21.0657718 12.5216692,21.0657718 L15.4616692,21.0657718 Z M27.4176692,21.0657718 C29.6912692,21.0657718 31.4552692,20.1444967 32.5136692,17.3806712 C33.2584692,15.4385235 33.8072692,11.1060403 33.8072692,9.08919462 C33.8072692,5.77758387 32.3764692,4.13422816 29.7500692,4.13422816 L24.7716692,4.13422816 C24.6736692,4.13422816 24.5952692,4.23382547 24.5756692,4.38322145 L22.2824692,20.8167786 C22.2628692,20.9661745 22.3412692,21.0657718 22.4392692,21.0657718 L27.4176692,21.0657718 Z M27.2412692,17.3059732 L26.2024692,17.3059732 C26.1436692,17.3059732 26.1044692,17.2561745 26.1240692,17.1565772 L27.3980692,8.0434228 C27.4176692,7.94382549 27.4372692,7.89402683 27.5156692,7.89402683 L28.5152692,7.89402683 C29.8676692,7.89402683 30.4360692,8.51651005 30.4360692,10.0602684 C30.4360692,11.1807382 29.9656692,14.5919463 29.5540692,15.6626175 C29.0640692,16.9075839 28.4172692,17.3059732 27.2412692,17.3059732 Z M42.8036692,21.0657718 C42.9212692,21.0657718 42.9996692,20.9661745 43.0192692,20.8167786 L43.4504692,17.7292618 C43.4700692,17.5798658 43.4112692,17.4802685 43.2936692,17.4802685 L38.1192692,17.4802685 C38.0408692,17.4802685 38.0212692,17.4304698 38.0212692,17.3308725 L38.4328692,14.4425503 C38.4524692,14.342953 38.4916692,14.2931544 38.5504692,14.2931544 L42.8036692,14.2931544 C42.9212692,14.2931544 43.0192692,14.1935571 43.0388692,14.0441611 L43.4504692,11.0064429 C43.4700692,10.857047 43.4112692,10.7574497 43.2936692,10.7574497 L39.0600692,10.7574497 C38.9816692,10.7574497 38.9424692,10.707651 38.9620692,10.6080537 L39.3540692,7.8691275 C39.3540692,7.76953018 39.4128692,7.71973153 39.4716692,7.71973153 L44.6656692,7.71973153 C44.7636692,7.71973153 44.8616692,7.62013421 44.8812692,7.47073824 L45.3124692,4.38322145 C45.3320692,4.23382547 45.2732692,4.13422816 45.1556692,4.13422816 L36.7276692,4.13422816 C36.6296692,4.13422816 36.5512692,4.23382547 36.5316692,4.38322145 L34.2384692,20.8167786 C34.2188692,20.9661745 34.2972692,21.0657718 34.3952692,21.0657718 L42.8036692,21.0657718 Z M49.3696692,21.3645638 C52.9172692,21.3645638 55.3280692,18.9493289 55.3280692,14.9156376 C55.3280692,12.5004027 54.0344692,11.1060403 51.6628692,10.6578523 L51.0160692,10.5333557 C49.8988692,10.3341611 49.5656692,9.88597314 49.5656692,9.23859059 C49.5656692,8.26751676 50.2908692,7.49563756 51.2904692,7.49563756 C52.3096692,7.49563756 53.1720692,7.91892616 53.9560692,8.69080535 C54.0344692,8.76550334 54.1520692,8.74060401 54.2500692,8.61610737 L55.9748692,6.10127514 C56.0924692,5.95187917 56.0924692,5.82738252 55.9944692,5.72778521 C54.9752692,4.60731541 53.3680692,3.83543621 51.5844692,3.83543621 C48.2916692,3.83543621 46.0964692,6.3253691 46.0964692,10.0104698 C46.0964692,12.4257047 47.3900692,13.8947651 49.7616692,14.3180537 L50.4280692,14.4425503 C51.5256692,14.6666443 51.8392692,15.0899329 51.8392692,15.7373154 C51.8392692,16.8328859 51.0356692,17.6794631 49.7420692,17.6794631 C48.4680692,17.6794631 47.3508692,16.9324832 46.7236692,16.0610067 C46.6648692,15.9614094 46.5276692,15.9614094 46.4296692,16.0859061 L44.4304692,18.5260403 C44.3128692,18.6505369 44.3324692,18.8497316 44.3912692,18.9493289 C45.2144692,20.2191947 47.2920692,21.3645638 49.3696692,21.3645638 Z M59.3460692,21.0657718 C59.4636692,21.0657718 59.5224692,20.9661745 59.5420692,20.8167786 L61.8352692,4.38322145 C61.8548692,4.23382547 61.7960692,4.13422816 61.6784692,4.13422816 L58.7384692,4.13422816 C58.6208692,4.13422816 58.5424692,4.23382547 58.5228692,4.38322145 L56.2296692,20.8167786 C56.2100692,20.9661745 56.2884692,21.0657718 56.4060692,21.0657718 L59.3460692,21.0657718 Z M66.5980692,21.3645638 C69.0480692,21.3645638 70.7336692,20.2191947 71.8312692,17.4553691 C72.2428692,16.4344967 72.5172692,15.1397316 72.7916692,13.1228859 L72.9484692,11.8779195 C72.9680692,11.7285235 72.9288692,11.6289262 72.8112692,11.6289262 L68.2052692,11.6289262 C68.1072692,11.6289262 68.0092692,11.7285235 67.9896692,11.8779195 L67.6172692,14.567047 C67.5976692,14.716443 67.6564692,14.8160403 67.7544692,14.8160403 L69.1264692,14.8160403 C69.2048692,14.8160403 69.2440692,14.8658389 69.2440692,14.9654363 C69.1656692,15.4883222 69.0676692,15.8369128 68.9696692,16.160604 C68.6364692,17.0569799 67.9896692,17.6047651 67.0292692,17.6047651 C66.0492692,17.6047651 65.5004692,16.8328859 65.5004692,15.6377181 C65.5004692,14.3678524 66.1080692,10.1847651 66.4804692,9.21369126 C66.8528692,8.2177181 67.4800692,7.59523488 68.3816692,7.59523488 C69.2636692,7.59523488 69.6948692,8.09322146 69.9888692,9.01449663 C70.0476692,9.13899328 70.1456692,9.18879193 70.2828692,9.13899328 L72.8504692,7.84422817 C72.9680692,7.76953018 73.0268692,7.62013421 72.9876692,7.44583891 C72.5172692,5.32939595 71.0472692,3.83543621 68.7932692,3.83543621 C66.3040692,3.83543621 64.5204692,5.030604 63.4620692,7.79442951 C62.7368692,9.66187918 62.1488692,14.3927517 62.1488692,16.0361074 C62.1488692,19.5469128 63.9324692,21.3645638 66.5980692,21.3645638 Z M76.2020692,21.0657718 C76.3000692,21.0657718 76.3784692,20.9661745 76.3980692,20.8167786 L77.7700692,11.0064429 L77.8680692,11.0064429 L80.3768692,20.8167786 C80.4160692,20.9910739 80.5140692,21.0657718 80.6512692,21.0657718 L83.4540692,21.0657718 C83.5716692,21.0657718 83.6500692,20.9661745 83.6696692,20.8167786 L85.9628692,4.38322145 C85.9824692,4.23382547 85.9040692,4.13422816 85.7864692,4.13422816 L83.1600692,4.13422816 C83.0424692,4.13422816 82.9640692,4.23382547 82.9444692,4.38322145 L81.5724692,14.1935571 L81.4940692,14.1935571 L78.9852692,4.38322145 C78.9264692,4.20892614 78.8284692,4.13422816 78.6912692,4.13422816 L75.9080692,4.13422816 C75.7904692,4.13422816 75.7120692,4.23382547 75.6924692,4.38322145 L73.3992692,20.8167786 C73.3796692,20.9661745 73.4580692,21.0657718 73.5756692,21.0657718 L76.2020692,21.0657718 Z" id="UIDESIGN" fill-rule="nonzero"></path>
        </g>
    </g>
</svg>