<svg width="30" height="30" viewBox="0 0 30 30" fill="none" xmlns="http://www.w3.org/2000/svg">
<path d="M10.0412 17.2173C7.11127 8.66506 16.2178 3.55748 23.0279 4.42854C18.4746 2.84479 14.1985 4.42854 12.496 5.65594C6.79453 9.83703 8.48383 15.1056 10.0412 17.2173Z" fill="url(#paint0_linear_7_13)"/>
<path d="M8.77407 6.40819C14.8557 0.4533 22.1303 2.31684 25.0075 3.99297C16.7403 -3.16556 8.49703 0.865056 5.2503 4.03255C-2.14776 11.25 4.99994 20.625 13.1294 21.335C2.79543 16.1482 6.83327 8.30855 8.77407 6.40819Z" fill="url(#paint1_linear_7_13)"/>
<path d="M19.5435 12.7827C22.4734 21.3349 13.3669 26.4425 6.55683 25.5715C11.1101 27.1552 15.3862 25.5715 17.0887 24.3441C22.7902 20.163 21.1009 14.8944 19.5435 12.7827Z" fill="url(#paint2_linear_7_13)"/>
<path d="M20.8105 23.5918C14.729 29.5467 7.45428 27.6832 4.57715 26.007C12.8443 33.1656 21.0876 29.1349 24.3343 25.9674C31.2632 17.6528 23.78 9.65486 16.4552 8.66501C26.7892 13.8518 22.2359 22.0081 20.8105 23.5918Z" fill="url(#paint3_linear_7_13)"/>
<defs>
<linearGradient id="paint0_linear_7_13" x1="15.0875" y1="17.2385" x2="22.3838" y2="4.96367" gradientUnits="userSpaceOnUse">
<stop stop-color="#38FFE7"/>
<stop offset="1" stop-color="#38FFE7" stop-opacity="0"/>
</linearGradient>
<linearGradient id="paint1_linear_7_13" x1="14.053" y1="1.46732e-07" x2="11.6346" y2="20.9932" gradientUnits="userSpaceOnUse">
<stop stop-color="white"/>
<stop offset="1" stop-color="white" stop-opacity="0"/>
</linearGradient>
<linearGradient id="paint2_linear_7_13" x1="13.5014" y1="26.2368" x2="15.0187" y2="12.9964" gradientUnits="userSpaceOnUse">
<stop stop-color="white" stop-opacity="0"/>
<stop offset="1" stop-color="white"/>
</linearGradient>
<linearGradient id="paint3_linear_7_13" x1="16.9119" y1="8.63141" x2="5.22901" y2="27.8849" gradientUnits="userSpaceOnUse">
<stop stop-color="#38FFE7" stop-opacity="0"/>
<stop offset="1" stop-color="#38FFE7"/>
</linearGradient>
</defs>
</svg>
